<mxfile host="app.diagrams.net" modified="2021-01-04T04:33:49.065Z" agent="5.0 (Windows NT 10.0; Win64; x64) AppleWebKit/537.36 (KHTML, like Gecko) Chrome/87.0.4280.88 Safari/537.36" etag="tY7m_2Wlgi-1ZeCr787b" version="14.1.2" type="github">
  <diagram id="siMh5b_u8r_c2KPUggQ8" name="Page-1">
    <mxGraphModel dx="750" dy="705" grid="1" gridSize="10" guides="1" tooltips="1" connect="1" arrows="1" fold="1" page="1" pageScale="1" pageWidth="827" pageHeight="1169" math="0" shadow="0">
      <root>
        <mxCell id="0" />
        <mxCell id="1" parent="0" />
        <mxCell id="v0MN4HT3yX1japyon12U-1" value="具体过程" style="text;html=1;strokeColor=none;fillColor=none;align=center;verticalAlign=middle;whiteSpace=wrap;rounded=0;" vertex="1" parent="1">
          <mxGeometry x="270" y="30" width="70" height="20" as="geometry" />
        </mxCell>
        <mxCell id="v0MN4HT3yX1japyon12U-4" value="" style="edgeStyle=orthogonalEdgeStyle;rounded=0;orthogonalLoop=1;jettySize=auto;html=1;" edge="1" parent="1" source="v0MN4HT3yX1japyon12U-2" target="v0MN4HT3yX1japyon12U-3">
          <mxGeometry relative="1" as="geometry" />
        </mxCell>
        <mxCell id="v0MN4HT3yX1japyon12U-2" value="第一次标记对象" style="rounded=0;whiteSpace=wrap;html=1;" vertex="1" parent="1">
          <mxGeometry x="255" y="80" width="100" height="30" as="geometry" />
        </mxCell>
        <mxCell id="v0MN4HT3yX1japyon12U-6" value="" style="edgeStyle=orthogonalEdgeStyle;rounded=0;orthogonalLoop=1;jettySize=auto;html=1;" edge="1" parent="1" source="v0MN4HT3yX1japyon12U-3" target="v0MN4HT3yX1japyon12U-5">
          <mxGeometry relative="1" as="geometry" />
        </mxCell>
        <mxCell id="v0MN4HT3yX1japyon12U-7" value="是" style="edgeLabel;html=1;align=center;verticalAlign=middle;resizable=0;points=[];" vertex="1" connectable="0" parent="v0MN4HT3yX1japyon12U-6">
          <mxGeometry x="-0.2993" relative="1" as="geometry">
            <mxPoint as="offset" />
          </mxGeometry>
        </mxCell>
        <mxCell id="v0MN4HT3yX1japyon12U-3" value="是否有引用链？" style="rhombus;whiteSpace=wrap;html=1;" vertex="1" parent="1">
          <mxGeometry x="242.5" y="150" width="125" height="70" as="geometry" />
        </mxCell>
        <mxCell id="v0MN4HT3yX1japyon12U-5" value="" style="whiteSpace=wrap;html=1;" vertex="1" parent="1">
          <mxGeometry x="245" y="305" width="120" height="60" as="geometry" />
        </mxCell>
      </root>
    </mxGraphModel>
  </diagram>
</mxfile>
